<?xml version="1.0" standalone="no"?>
<!DOCTYPE svg PUBLIC "-//W3C//DTD SVG 20010904//EN"
 "http://www.w3.org/TR/2001/REC-SVG-20010904/DTD/svg10.dtd">
<svg version="1.0" xmlns="http://www.w3.org/2000/svg"
 width="512.000000pt" height="512.000000pt" viewBox="0 0 512.000000 512.000000"
 preserveAspectRatio="xMidYMid meet">
<metadata>
Created by potrace 1.11, written by Peter Selinger 2001-2013
</metadata>
<g transform="translate(0.000000,512.000000) scale(0.100000,-0.100000)"
fill="#000000" stroke="none">
<path d="M4515 5109 c-11 -6 -157 -150 -325 -320 l-305 -310 -50 11 c-207 47
-491 29 -744 -47 l-83 -25 -27 24 c-14 13 -84 78 -156 144 -204 188 -457 410
-495 433 -72 43 -166 17 -208 -58 l-24 -42 21 -462 c33 -717 30 -827 -29
-1167 -48 -275 -61 -395 -67 -627 l-6 -223 -36 -5 c-443 -71 -799 -271 -1095
-613 -312 -362 -516 -821 -641 -1442 -43 -217 -44 -251 -9 -279 33 -26 65 -27
93 -3 17 13 27 45 47 147 77 403 144 629 272 915 188 417 489 761 830 947 182
99 347 154 526 174 138 15 144 16 156 40 7 12 13 117 15 277 3 272 10 334 70
694 39 235 59 475 50 628 -3 58 -12 265 -20 460 -8 195 -17 390 -20 433 l-6
79 202 -179 c112 -98 265 -236 342 -308 76 -71 149 -137 162 -145 22 -13 33
-12 137 22 168 56 246 69 423 75 127 4 179 2 255 -12 52 -10 113 -20 135 -23
l39 -4 318 323 318 324 -2 -575 c-2 -677 -1 -684 101 -920 56 -128 71 -186 77
-310 7 -131 -11 -249 -65 -423 -60 -191 -66 -227 -65 -392 0 -130 4 -169 31
-290 152 -687 91 -1287 -184 -1830 -68 -135 -77 -173 -47 -206 26 -29 87 -26
113 6 49 64 164 314 216 471 160 487 177 996 53 1589 -25 122 -31 173 -31 270
1 125 5 148 77 390 44 149 59 262 53 415 -7 156 -23 225 -90 380 -88 204 -82
146 -83 850 0 694 2 668 -67 710 -35 22 -118 27 -152 9z"/>
<path d="M3010 3631 c-105 -34 -176 -116 -201 -231 -8 -38 -8 -58 1 -80 15
-35 57 -55 91 -41 34 12 46 29 54 76 20 112 125 169 212 115 42 -25 61 -56 72
-114 11 -59 30 -80 75 -80 53 0 76 27 76 88 0 95 -67 201 -157 246 -51 26
-172 38 -223 21z"/>
<path d="M3995 3628 c-113 -43 -194 -153 -195 -264 0 -61 23 -88 76 -88 45 0
64 21 75 80 11 58 30 89 72 114 87 54 192 -3 212 -115 8 -47 20 -64 54 -76 34
-14 76 6 91 41 9 22 9 42 1 80 -21 97 -74 170 -156 213 -47 24 -182 33 -230
15z"/>
<path d="M3050 2935 c-20 -21 -22 -31 -17 -84 10 -117 83 -223 189 -277 43
-23 70 -28 143 -32 80 -4 96 -1 147 21 31 14 76 44 101 66 l44 41 31 -34 c17
-19 61 -49 98 -66 61 -30 72 -32 152 -28 67 2 99 9 142 29 110 51 187 161 197
280 5 53 3 63 -17 84 -51 54 -122 20 -133 -64 -8 -62 -53 -130 -107 -159 -61
-32 -140 -28 -200 12 -46 30 -90 109 -90 162 0 39 -36 74 -76 74 -39 0 -74
-36 -74 -76 0 -48 -46 -128 -91 -160 -119 -82 -287 -5 -305 141 -4 29 -15 59
-27 73 -28 30 -77 29 -107 -3z"/>
</g>
</svg>
